<?xml version="1.0" encoding="UTF-8"?>
<svg id="Calque_2" data-name="Calque 2" xmlns="http://www.w3.org/2000/svg" viewBox="0 0 547.42 279.15">
  <g id="Calque_1-2" data-name="Calque 1">
    <g>
      <path d="M18.53,153.22c-25.46-21.43-11.72-81.52,34.44-81.52,6.41,0,11.91,1.1,16.49,3.11,10.99-10.99,27.3-19.24,49.1-19.24,15.57,0,29.5,5.13,36.09,15.75,7.33-3.11,15.21-5.13,24-5.13,29.68,0,27.11,40.67-.37,40.67-18.5,0-16.85-28.58,2.93-28.58.73,0,.73.92,0,.92-18.5,0-20.15,26.56-2.93,26.56,26.01,0,28.58-38.47.37-38.47-8.61,0-16.3,2.01-23.08,5.5,2.2,4.21,3.48,8.98,3.48,14.66,0,11.17-5.5,22.35-14.66,28.95,4.03,3.85,5.86,9.34,6.05,15.39l5.5-.37c.73,0,.73.92,0,.92l-5.5.37c-.18,20.7-23.82,45.62-43.78,45.62-21.8,0-14.29-31.69,4.76-31.69,1.65,0,2.57.37,2.57.37,6.23-6.23,16.85-11.91,31.14-14.47v-2.01c0-4.76-.92-9.16-3.11-12.46-4.58,2.75-9.89,4.21-15.57,4.21-8.79,0-7.69-10.81,4.76-10.81,4.4,0,7.88.92,10.63,2.75,7.88-6.96,13.19-18.14,13.19-29.13,0-4.03-.73-7.69-2.02-10.81-18.32,10.44-31.14,31.69-44.33,52.21-17.95,27.85-35.17,53.31-66.32,53.31-2.2,0-4.4-.18-6.23-.55-2.2,9.34-9.71,18.5-23.45,18.5-6.96,0-11.17-3.3-12.64-7.51-.18-.55.73-.92.92-.37,1.28,4.03,5.31,6.78,11.72,6.78,11.72,0,18.5-8.98,20.88-18.14-15.21-4.21-15.94-19.79-6.23-19.79,7.51,0,11.17,9.71,9.16,19.42,1.83.37,3.66.55,5.86.55,26.2,0,39.39-25.46,58.07-52.39,14.29-20.88,30.23-43.23,51.66-53.86-5.5-10.81-18.14-15.75-33.53-15.75-21.07,0-36.82,8.24-47.26,19.05,25.46,13.01,19.79,53.31-3.48,53.31-20.7,0-20.15-31.51.73-53.31-4.21-1.83-9.53-2.93-15.57-2.93-44.7,0-58.62,58.62-33.89,79.69.55.37,0,1.1-.55.73ZM33.92,177.58c2.02-8.98-.37-17.77-6.59-17.77-8.24,0-7.33,13.74,6.59,17.77ZM70.37,76.64c-19.42,20.88-19.97,50.56-1.28,50.56,20.15,0,26.01-38.29,1.28-50.56ZM144.93,133.43c-13.74,2.38-24,8.06-29.86,13.92,7.88,3.11,5.68,16.3-2.75,16.3-2.75,0-4.4-1.83-4.4-4.76,0-3.3,1.83-7.33,5.31-11.17,0,0-.55-.18-1.83-.18-18.14,0-24.37,29.5-5.5,29.5,20.33,0,37.37-24.73,39.02-43.6ZM114.34,148.09c-3.48,3.66-5.31,7.51-5.31,10.81,0,2.56,1.28,3.85,3.3,3.85,6.96,0,9.53-12.27,2.02-14.66ZM140.17,115.85c-2.2-2.01-5.13-3.3-8.79-3.3-10.62,0-11.91,8.43-5.13,8.43,4.95,0,9.71-1.83,13.92-5.13Z"/>
      <path d="M185.28,117.75c4.88,0,9.27,1.07,13.17,3.21,3.89,2.14,7,5.5,9.33,10.08,2.33,4.58,3.49,10.53,3.49,17.86s-1.16,13.26-3.49,17.8c-2.33,4.54-5.44,7.88-9.33,10.02-3.89,2.14-8.28,3.21-13.17,3.21s-9.18-1.07-13.11-3.21c-3.93-2.14-7.06-5.48-9.39-10.02-2.33-4.54-3.49-10.48-3.49-17.8s1.16-13.28,3.49-17.86c2.33-4.58,5.46-7.94,9.39-10.08,3.93-2.14,8.3-3.21,13.11-3.21ZM185.28,120.04c-4.35,0-7.92,2.25-10.71,6.75-2.79,4.5-4.18,11.87-4.18,22.1s1.39,17.57,4.18,22.04c2.79,4.46,6.35,6.7,10.71,6.7s7.92-2.23,10.71-6.7c2.79-4.47,4.18-11.81,4.18-22.04s-1.39-17.59-4.18-22.1c-2.79-4.5-6.35-6.75-10.71-6.75Z"/>
      <path d="M238.97,118.09v49.58c0,3.21.67,5.38,2,6.53,1.33,1.15,3.57,1.72,6.7,1.72v2.4c-1.3-.08-3.26-.17-5.9-.29-2.63-.11-5.29-.17-7.96-.17s-5.23.06-7.9.17c-2.67.11-4.66.21-5.95.29v-2.4c3.13,0,5.36-.57,6.7-1.72,1.33-1.14,2-3.32,2-6.53v-35.84c0-3.43-.61-5.97-1.83-7.61-1.22-1.64-3.51-2.46-6.87-2.46v-2.4c2.44.23,4.81.34,7.1.34s4.33-.13,6.35-.4c2.02-.27,3.87-.67,5.55-1.2ZM233.02,90.73c1.98,0,3.7.73,5.15,2.17,1.45,1.45,2.17,3.17,2.17,5.15s-.73,3.7-2.17,5.15c-1.45,1.45-3.17,2.18-5.15,2.18s-3.7-.72-5.15-2.18c-1.45-1.45-2.18-3.17-2.18-5.15s.72-3.7,2.18-5.15c1.45-1.45,3.17-2.17,5.15-2.17Z"/>
      <path d="M271.95,100.34v19.12h16.95v2.29h-16.95v44.31c0,3.59.65,6.11,1.95,7.56,1.3,1.45,3.09,2.18,5.38,2.18s4.27-.93,5.95-2.81c1.68-1.87,3.13-5.02,4.35-9.45l2.29.57c-.76,4.43-2.27,8.17-4.52,11.22-2.25,3.05-5.71,4.58-10.36,4.58-2.6,0-4.73-.33-6.41-.97-1.68-.65-3.17-1.58-4.46-2.81-1.68-1.75-2.84-3.85-3.49-6.3-.65-2.44-.97-5.69-.97-9.73v-38.36h-10.99v-2.29h10.99v-17.52c1.91-.08,3.74-.23,5.5-.46,1.75-.23,3.36-.61,4.81-1.15Z"/>
      <path d="M321.87,117.75c6.72,0,11.96,2.04,15.74,6.13,3.78,4.08,5.67,10.44,5.67,19.06h-40.42l-.11-2.18h29.54c.15-3.74-.15-7.19-.92-10.36-.76-3.17-1.97-5.71-3.61-7.61-1.64-1.91-3.76-2.86-6.35-2.86-3.51,0-6.62,1.76-9.33,5.27-2.71,3.51-4.33,9.08-4.87,16.72l.34.46c-.15,1.14-.27,2.4-.34,3.78-.08,1.37-.11,2.75-.11,4.12,0,5.19.84,9.66,2.52,13.4,1.68,3.74,3.87,6.58,6.58,8.53,2.71,1.95,5.51,2.92,8.42,2.92,2.29,0,4.46-.36,6.53-1.09,2.06-.72,3.97-1.93,5.72-3.61,1.75-1.68,3.28-3.93,4.58-6.75l2.29.92c-.84,2.52-2.21,4.96-4.12,7.33-1.91,2.37-4.31,4.29-7.21,5.78-2.9,1.49-6.26,2.23-10.08,2.23-5.5,0-10.21-1.26-14.14-3.78-3.93-2.52-6.95-6.01-9.05-10.48-2.1-4.47-3.15-9.6-3.15-15.4,0-6.72,1.07-12.5,3.21-17.35,2.14-4.85,5.15-8.59,9.04-11.22,3.89-2.63,8.43-3.95,13.62-3.95Z"/>
      <path d="M408.54,117.75c3.36,0,6.51.8,9.45,2.4,2.94,1.6,4.9,4.35,5.9,8.24l-1.49,1.14c-1.07-3.21-2.73-5.53-4.98-6.98-2.25-1.45-4.91-2.17-7.96-2.17-4.5,0-8.26,2.33-11.28,6.98-3.02,4.66-4.49,11.83-4.41,21.53,0,6.18.59,11.32,1.77,15.4,1.18,4.08,2.94,7.14,5.27,9.16,2.33,2.02,5.17,3.03,8.53,3.03s6.11-1.37,8.7-4.12c2.59-2.75,4.16-6.79,4.69-12.14l1.37,1.6c-.61,5.8-2.46,10.27-5.55,13.4-3.09,3.13-7.27,4.69-12.54,4.69-4.73,0-8.87-1.14-12.42-3.43-3.55-2.29-6.26-5.72-8.13-10.3-1.87-4.58-2.8-10.34-2.8-17.29s1.2-12.73,3.61-17.35c2.4-4.62,5.57-8.07,9.5-10.36,3.93-2.29,8.19-3.44,12.77-3.44ZM432.58,88.55v77.29c0,3.43.63,5.97,1.89,7.61,1.26,1.64,3.53,2.46,6.81,2.46v2.4c-2.37-.23-4.73-.34-7.1-.34-2.21,0-4.33.12-6.35.34-2.02.23-3.88.65-5.55,1.26v-77.29c0-3.43-.61-5.97-1.83-7.61-1.22-1.64-3.51-2.46-6.87-2.46v-2.4c2.44.23,4.81.34,7.1.34s4.33-.13,6.35-.4c2.02-.27,3.87-.67,5.55-1.2Z"/>
      <path d="M474.83,117.75c6.72,0,11.96,2.04,15.74,6.13,3.78,4.08,5.67,10.44,5.67,19.06h-40.42l-.11-2.18h29.54c.15-3.74-.15-7.19-.92-10.36-.76-3.17-1.97-5.71-3.61-7.61-1.64-1.91-3.76-2.86-6.35-2.86-3.51,0-6.62,1.76-9.33,5.27-2.71,3.51-4.33,9.08-4.87,16.72l.34.46c-.15,1.14-.27,2.4-.34,3.78-.08,1.37-.11,2.75-.11,4.12,0,5.19.84,9.66,2.52,13.4,1.68,3.74,3.87,6.58,6.58,8.53,2.71,1.95,5.51,2.92,8.42,2.92,2.29,0,4.46-.36,6.53-1.09,2.06-.72,3.97-1.93,5.72-3.61,1.75-1.68,3.28-3.93,4.58-6.75l2.29.92c-.84,2.52-2.21,4.96-4.12,7.33-1.91,2.37-4.31,4.29-7.21,5.78-2.9,1.49-6.26,2.23-10.08,2.23-5.5,0-10.21-1.26-14.14-3.78-3.93-2.52-6.95-6.01-9.05-10.48-2.1-4.47-3.15-9.6-3.15-15.4,0-6.72,1.07-12.5,3.21-17.35,2.14-4.85,5.15-8.59,9.04-11.22,3.89-2.63,8.43-3.95,13.62-3.95Z"/>
      <path d="M525.44,117.75c3.05,0,5.65.5,7.79,1.49,2.14.99,3.7,1.91,4.69,2.75,2.52,2.06,4.04.69,4.58-4.12h2.63c-.15,2.14-.27,4.68-.34,7.61-.08,2.94-.12,6.89-.12,11.85h-2.63c-.46-2.82-1.24-5.57-2.35-8.24-1.11-2.67-2.73-4.87-4.87-6.58-2.14-1.72-4.92-2.58-8.36-2.58-2.67,0-4.91.74-6.7,2.23-1.79,1.49-2.69,3.68-2.69,6.58,0,2.29.69,4.26,2.06,5.9,1.37,1.64,3.17,3.17,5.38,4.58,2.21,1.41,4.62,2.96,7.21,4.64,2.9,1.83,5.53,3.7,7.9,5.61,2.36,1.91,4.25,4.01,5.67,6.3,1.41,2.29,2.12,5,2.12,8.13,0,3.51-.92,6.45-2.75,8.82-1.83,2.37-4.22,4.16-7.16,5.38-2.94,1.22-6.17,1.83-9.67,1.83-1.68,0-3.26-.13-4.75-.4-1.49-.27-2.92-.67-4.29-1.2-.76-.38-1.54-.84-2.35-1.37-.8-.53-1.58-1.11-2.35-1.72-.76-.61-1.45-.59-2.06.06-.61.65-1.07,1.93-1.37,3.84h-2.63c.15-2.44.27-5.42.34-8.93.08-3.51.12-8.17.12-13.97h2.63c.53,4.28,1.3,8.01,2.29,11.22.99,3.21,2.56,5.71,4.69,7.5,2.14,1.79,5.11,2.69,8.93,2.69,1.53,0,3.07-.34,4.64-1.03,1.56-.69,2.88-1.83,3.95-3.43,1.07-1.6,1.6-3.74,1.6-6.41,0-3.36-1.22-6.11-3.66-8.24-2.44-2.14-5.54-4.39-9.27-6.75-2.75-1.75-5.32-3.51-7.73-5.27-2.4-1.75-4.35-3.74-5.84-5.95-1.49-2.21-2.23-4.88-2.23-8.01,0-3.44.78-6.24,2.35-8.42,1.56-2.17,3.64-3.78,6.24-4.81,2.59-1.03,5.38-1.55,8.36-1.55Z"/>
      <path d="M48.94,194.88c4.96,0,8.97.74,12.02,2.23,3.05,1.49,5.91,3.23,8.59,5.21.99.76,1.75,1.15,2.29,1.15,1.45,0,2.4-2.33,2.86-6.98h2.63c-.15,2.83-.27,6.26-.34,10.3-.08,4.05-.11,9.39-.11,16.03h-2.63c-.53-3.21-1.18-6.3-1.95-9.27-.76-2.98-2.02-5.53-3.78-7.67-2.21-2.82-5.11-5.02-8.7-6.58-3.59-1.56-7.29-2.35-11.11-2.35s-7.27.94-10.36,2.8c-3.09,1.87-5.75,4.56-7.96,8.07-2.21,3.51-3.91,7.73-5.09,12.65-1.18,4.92-1.77,10.48-1.77,16.66,0,13.74,2.21,23.8,6.64,30.17,4.43,6.37,11.3,9.56,20.61,9.56,2.75,0,5.13-.4,7.16-1.2,2.02-.8,3.61-1.58,4.75-2.35,1.45-.99,2.37-1.93,2.75-2.8.38-.88.57-2.04.57-3.49v-10.99c0-3.13-.31-5.46-.92-6.98-.61-1.53-1.74-2.56-3.38-3.09-1.64-.53-4.06-.84-7.27-.92v-2.29c1.37.08,2.98.13,4.81.17,1.83.04,3.76.08,5.78.11,2.02.04,3.87.06,5.55.06,2.52,0,4.79-.04,6.81-.11,2.02-.08,3.72-.15,5.1-.23v2.29c-1.68.08-2.94.34-3.78.8-.84.46-1.39,1.37-1.66,2.75-.27,1.37-.4,3.47-.4,6.3v22.67h-2.29c-.08-1.3-.36-2.71-.86-4.24-.5-1.53-1.24-2.29-2.23-2.29-.46,0-.92.11-1.37.34-.46.23-1.26.76-2.4,1.6-2.52,1.91-5.19,3.42-8.01,4.52-2.83,1.11-6.11,1.66-9.85,1.66-7.86,0-14.6-1.62-20.21-4.87-5.61-3.24-9.9-7.92-12.88-14.03-2.98-6.11-4.47-13.4-4.47-21.87,0-8.93,1.6-16.64,4.81-23.13,3.21-6.49,7.57-11.51,13.11-15.06,5.53-3.55,11.85-5.32,18.95-5.32Z"/>
      <path d="M125.3,216.98c2.06,0,3.87.42,5.44,1.26,1.56.84,2.79,1.93,3.66,3.26.88,1.34,1.32,2.84,1.32,4.52,0,1.91-.59,3.59-1.77,5.04-1.18,1.45-2.77,2.18-4.75,2.18-1.6,0-3.02-.52-4.24-1.55-1.22-1.03-1.83-2.5-1.83-4.41,0-1.45.4-2.69,1.2-3.72s1.7-1.85,2.69-2.46c-.54-.76-1.34-1.14-2.4-1.14-2.37,0-4.54.71-6.53,2.12-1.99,1.41-3.66,3.23-5.04,5.44-1.37,2.21-2.44,4.56-3.21,7.04-.76,2.48-1.15,4.79-1.15,6.93v24.27c0,3.74,1.09,6.24,3.26,7.5,2.17,1.26,5.13,1.89,8.87,1.89v2.4c-1.76-.08-4.24-.17-7.44-.29s-6.6-.17-10.19-.17c-2.6,0-5.17.06-7.73.17-2.56.11-4.49.21-5.78.29v-2.4c3.13,0,5.36-.57,6.7-1.72,1.33-1.14,2-3.32,2-6.53v-35.84c0-3.43-.61-5.97-1.83-7.61-1.22-1.64-3.51-2.46-6.87-2.46v-2.4c2.44.23,4.81.34,7.1.34s4.33-.13,6.35-.4c2.02-.27,3.87-.67,5.55-1.2v14.31c.84-2.21,2.04-4.45,3.61-6.7,1.56-2.25,3.45-4.14,5.67-5.67,2.21-1.53,4.65-2.29,7.33-2.29Z"/>
      <path d="M156.9,278.35c-3.13,0-5.84-.59-8.13-1.78-2.29-1.18-4.03-2.84-5.21-4.98-1.18-2.14-1.77-4.62-1.77-7.44,0-3.36.78-6.11,2.35-8.24,1.56-2.14,3.57-3.85,6.01-5.15,2.44-1.3,5.02-2.38,7.73-3.26,2.71-.88,5.28-1.72,7.73-2.52,2.44-.8,4.45-1.74,6.01-2.8,1.56-1.07,2.35-2.48,2.35-4.24v-7.1c0-3.21-.48-5.65-1.43-7.33-.96-1.68-2.23-2.8-3.84-3.38-1.6-.57-3.4-.86-5.38-.86s-3.95.27-6.13.8c-2.17.54-3.91,1.64-5.21,3.32,1.45.31,2.71,1.07,3.78,2.29,1.07,1.22,1.6,2.79,1.6,4.69s-.61,3.42-1.83,4.52c-1.22,1.11-2.79,1.66-4.69,1.66-2.21,0-3.83-.71-4.87-2.12-1.03-1.41-1.55-3-1.55-4.75,0-1.98.5-3.59,1.49-4.81.99-1.22,2.25-2.37,3.78-3.43,1.75-1.22,4.03-2.27,6.81-3.15,2.79-.88,5.93-1.32,9.45-1.32,3.13,0,5.8.36,8.02,1.09,2.21.73,4.04,1.78,5.5,3.15,1.98,1.83,3.28,4.07,3.89,6.7.61,2.63.92,5.78.92,9.45v31.83c0,1.91.29,3.28.86,4.12.57.84,1.47,1.26,2.69,1.26.84,0,1.64-.19,2.4-.57.76-.38,1.68-.99,2.75-1.83l1.26,1.95c-1.6,1.22-3.13,2.23-4.58,3.03-1.45.8-3.4,1.2-5.84,1.2-2.21,0-4.05-.38-5.5-1.15-1.45-.76-2.54-1.89-3.26-3.38-.73-1.49-1.09-3.38-1.09-5.67-2.06,3.43-4.52,5.99-7.39,7.67-2.86,1.68-6.09,2.52-9.67,2.52ZM161.02,273.77c2.52,0,4.87-.72,7.04-2.18,2.18-1.45,4.14-3.62,5.9-6.53v-22.44c-.92,1.3-2.25,2.39-4.01,3.26-1.76.88-3.66,1.76-5.72,2.63-2.06.88-4.03,1.91-5.9,3.09-1.87,1.18-3.42,2.73-4.64,4.64-1.22,1.91-1.83,4.39-1.83,7.44s.82,5.5,2.46,7.33c1.64,1.83,3.87,2.75,6.7,2.75Z"/>
      <path d="M236.13,216.98c2.9,0,5.32.38,7.27,1.15,1.95.76,3.57,1.83,4.87,3.21,1.45,1.53,2.48,3.43,3.09,5.72.61,2.29.92,5.38.92,9.27v30.57c0,3.21.67,5.38,2,6.53,1.33,1.15,3.57,1.72,6.7,1.72v2.4c-1.3-.08-3.28-.17-5.95-.29-2.67-.11-5.27-.17-7.79-.17s-4.98.06-7.38.17-4.22.21-5.44.29v-2.4c2.75,0,4.69-.57,5.84-1.72,1.15-1.14,1.72-3.32,1.72-6.53v-33.09c0-2.37-.19-4.54-.57-6.53-.38-1.98-1.24-3.59-2.58-4.81-1.34-1.22-3.38-1.83-6.13-1.83-3.21,0-6.01.92-8.42,2.75s-4.28,4.33-5.61,7.5c-1.34,3.17-2,6.7-2,10.59v25.42c0,3.21.57,5.38,1.72,6.53,1.14,1.15,3.09,1.72,5.84,1.72v2.4c-1.22-.08-3.03-.17-5.44-.29s-4.87-.17-7.38-.17-5.11.06-7.79.17c-2.67.11-4.66.21-5.95.29v-2.4c3.13,0,5.36-.57,6.7-1.72,1.33-1.14,2-3.32,2-6.53v-35.84c0-3.43-.61-5.97-1.83-7.61-1.22-1.64-3.51-2.46-6.87-2.46v-2.4c2.44.23,4.81.34,7.1.34s4.33-.13,6.35-.4c2.02-.27,3.87-.67,5.55-1.2v13.51c1.98-5.19,4.75-8.8,8.3-10.82,3.55-2.02,7.27-3.03,11.16-3.03Z"/>
      <path d="M294.06,216.98c3.36,0,6.51.8,9.45,2.41,2.94,1.6,4.9,4.35,5.9,8.24l-1.49,1.14c-1.07-3.21-2.73-5.53-4.98-6.98-2.25-1.45-4.91-2.18-7.96-2.18-4.5,0-8.26,2.33-11.28,6.98-3.02,4.66-4.49,11.83-4.41,21.53,0,6.18.59,11.32,1.77,15.4,1.18,4.08,2.94,7.14,5.27,9.16,2.33,2.02,5.17,3.03,8.53,3.03s6.11-1.37,8.7-4.12c2.59-2.75,4.16-6.79,4.69-12.14l1.37,1.6c-.61,5.8-2.46,10.27-5.55,13.4-3.09,3.13-7.27,4.69-12.54,4.69-4.73,0-8.87-1.14-12.42-3.43-3.55-2.29-6.26-5.72-8.13-10.3-1.87-4.58-2.8-10.34-2.8-17.29s1.2-12.73,3.61-17.35c2.4-4.62,5.57-8.07,9.5-10.36,3.93-2.29,8.19-3.44,12.77-3.44ZM318.11,187.78v77.28c0,3.43.63,5.97,1.89,7.61,1.26,1.64,3.53,2.46,6.81,2.46v2.4c-2.37-.23-4.73-.34-7.1-.34-2.21,0-4.33.12-6.35.34-2.02.23-3.88.65-5.55,1.26v-77.28c0-3.44-.61-5.97-1.83-7.61-1.22-1.64-3.51-2.46-6.87-2.46v-2.4c2.44.23,4.81.34,7.1.34s4.33-.13,6.35-.4c2.02-.27,3.87-.67,5.55-1.2Z"/>
      <path d="M353.03,216.98c3.05,0,5.65.5,7.79,1.49,2.14.99,3.7,1.91,4.69,2.75,2.52,2.06,4.04.69,4.58-4.12h2.63c-.15,2.14-.27,4.68-.34,7.61-.08,2.94-.12,6.89-.12,11.85h-2.63c-.46-2.82-1.24-5.57-2.35-8.24-1.11-2.67-2.73-4.87-4.87-6.58-2.14-1.72-4.92-2.58-8.36-2.58-2.67,0-4.91.74-6.7,2.23-1.79,1.49-2.69,3.68-2.69,6.58,0,2.29.69,4.26,2.06,5.9,1.37,1.64,3.17,3.17,5.38,4.58,2.21,1.41,4.62,2.96,7.21,4.64,2.9,1.83,5.53,3.7,7.9,5.61,2.36,1.91,4.25,4.01,5.67,6.3,1.41,2.29,2.12,5,2.12,8.13,0,3.51-.92,6.45-2.75,8.82-1.83,2.37-4.22,4.16-7.16,5.38-2.94,1.22-6.17,1.83-9.67,1.83-1.68,0-3.26-.13-4.75-.4-1.49-.27-2.92-.67-4.29-1.2-.76-.38-1.54-.84-2.35-1.37-.8-.53-1.58-1.11-2.35-1.72-.76-.61-1.45-.59-2.06.06-.61.65-1.07,1.93-1.37,3.84h-2.63c.15-2.44.27-5.42.34-8.93.08-3.51.12-8.17.12-13.97h2.63c.53,4.28,1.3,8.01,2.29,11.22.99,3.21,2.56,5.71,4.69,7.5,2.14,1.79,5.11,2.69,8.93,2.69,1.53,0,3.07-.34,4.64-1.03,1.56-.69,2.88-1.83,3.95-3.43,1.07-1.6,1.6-3.74,1.6-6.41,0-3.36-1.22-6.11-3.66-8.24-2.44-2.14-5.54-4.39-9.27-6.75-2.75-1.75-5.32-3.51-7.73-5.27-2.4-1.75-4.35-3.74-5.84-5.95-1.49-2.21-2.23-4.88-2.23-8.01,0-3.43.78-6.24,2.35-8.42,1.56-2.17,3.64-3.78,6.24-4.81,2.59-1.03,5.38-1.55,8.36-1.55Z"/>
    </g>
    <g>
      <path d="M30.24,54c7.78-3.32,13.2-9.53,18.88-16.69h-1.05c-12.67,0-20.19-6.55-20.19-15.03C27.88,10.66,41.95,0,54.63,0c.44,0,.44.52,0,.52-12.23,0-25.17,11.45-25.17,22.63,0,7.43,6.29,13.63,18.61,13.63h1.49l3.32-4.28c11.01-13.98,24.64-29.97,34.26-29.97,2.36,0,3.58,1.57,3.58,3.84,0,8.48-19.4,26.39-36.44,30.24-6.29,7.6-13.2,14.42-22.63,17.91,3.85,1.31,7.43,2.53,10.84,2.53,11.62,0,19.49-11.45,19.49-11.45h.61s-7.95,11.97-20.1,11.97c-3.58,0-7.52-1.22-11.62-2.71-3.93,1.31-8.39,2.1-13.28,2.1-14.51,0-12.5-7.78-5.24-7.78,5.86,0,12.06,2.53,17.92,4.81ZM29.46,54.35c-5.77-2.18-11.62-4.63-17.13-4.63-6.38,0-8.56,6.73,5.24,6.73,4.54,0,8.39-.79,11.88-2.1ZM54.8,35.92c16.6-4.11,34.96-21.41,34.96-29.54,0-1.83-.79-3.32-2.62-3.32-9.18,0-18.88,16.17-30.76,30.93l-1.57,1.92Z"/>
      <path d="M75.07,37.93c1.57,0,2.1.79,2.1,1.92,0,.79-.35,1.83-.35,1.83h.17c1.57-2.01,2.8-3.5,2.8-3.5h.09s.52.52,1.57.52c1.49,0,2.88-1.22,2.88-1.22.09-.09.26-.09.17,0,0,0-11.8,12.06-11.8,15.91,0,1.05.52,1.66,1.66,1.66,3.84,0,10.75-9.44,10.75-9.44h.61s-7.25,9.96-11.45,9.96c-1.49,0-2.53-1.05-2.53-2.97,0-1.22.44-2.62,1.05-4.11h-.17c-3.06,3.76-7.08,7.08-9.61,7.08-2.27,0-3.32-2.1-3.32-4.28,0-6.47,9.96-13.37,15.38-13.37ZM63.1,55.05c4.2,0,13.54-10.75,13.54-15.21,0-.87-.35-1.4-1.31-1.4-4.37,0-13.81,10.75-13.81,15.03,0,.96.52,1.57,1.57,1.57Z"/>
    </g>
  </g>
</svg>